<?xml version="1.0" encoding="utf-8"?>
<!-- Generator: Adobe Illustrator 19.1.0, SVG Export Plug-In . SVG Version: 6.00 Build 0)  -->
<svg version="1.1" id="Layer_1" xmlns="http://www.w3.org/2000/svg" xmlns:xlink="http://www.w3.org/1999/xlink" x="0px" y="0px"
	 viewBox="0 0 22 22" style="enable-background:new 0 0 22 22;" xml:space="preserve">
<style type="text/css">
	.st0{fill:#FFFFFF;}
</style>
<path class="st0" d="M11,0C4.9,0,0,4.9,0,11c0,6.1,4.9,11,11,11s11-4.9,11-11C22,4.9,17.1,0,11,0z M17.1,8.2l-6.8,7.6
	c-0.2,0.2-0.4,0.3-0.6,0.3c-0.2,0-0.4-0.1-0.5-0.2L5,12.5c-0.7-0.2-0.7-1.6-0.1-2C5.1,10.1,5.7,10,6,10.3l3.6,2.9l6.2-7
	c0.3-0.3,0.8-0.4,1.2-0.1C17.6,6.1,17.7,7.3,17.1,8.2z"/>
</svg>
