<?xml version="1.0" encoding="utf-8"?>
<!-- Generator: Adobe Illustrator 19.1.0, SVG Export Plug-In . SVG Version: 6.00 Build 0)  -->
<svg version="1.1" id="Layer_1" xmlns="http://www.w3.org/2000/svg" xmlns:xlink="http://www.w3.org/1999/xlink" x="0px" y="0px"
	 viewBox="4 -4 16 16" style="enable-background:new 4 -4 16 16;" xml:space="preserve">
<style type="text/css">
	.st0{fill:#0071BC;}
</style>
<path class="st0" d="M19,0v10c0,1.1-0.9,2-2.1,2H7.1C5.9,12,5,11.1,5,10V-2c0-1.1,0.9-2,2.1-2h7L19,0z M13,1h4l-4-3V1z M17,9V3h-6
	v-5H8C7.4-2,7-1.4,7-1V9c0,0.8,0.5,1,1,1h8C16.5,10,17,9.7,17,9z"/>
</svg>
