<?xml version="1.0" encoding="utf-8"?>
<!-- Generator: Adobe Illustrator 19.1.0, SVG Export Plug-In . SVG Version: 6.00 Build 0)  -->
<svg version="1.1" id="Layer_1" xmlns="http://www.w3.org/2000/svg" xmlns:xlink="http://www.w3.org/1999/xlink" x="0px" y="0px"
	 viewBox="0 0 25 25" style="enable-background:new 0 0 25 25;" xml:space="preserve">
<path d="M24.7,20.9L14,2.4c-0.3-0.6-0.9-0.9-1.5-0.9c-0.6,0-1.2,0.3-1.5,0.9L0.3,20.9c-0.3,0.6-0.4,1.2,0,1.8
	c0.3,0.5,0.9,0.8,1.6,0.8h21.4c0.7,0,1.3-0.3,1.6-0.8C25.1,22.1,25.1,21.5,24.7,20.9z M12.4,7.4c0.8,0,1.5,0.7,1.5,1.5v6.2
	c0,0.8-0.7,1.5-1.5,1.5c-0.8,0-1.5-0.7-1.5-1.5V8.9C10.9,8.1,11.6,7.4,12.4,7.4z M12.5,18.2c0.8,0,1.5,0.7,1.5,1.5
	c0,0.8-0.7,1.5-1.5,1.5c-0.8,0-1.5-0.7-1.5-1.5C11,18.9,11.7,18.2,12.5,18.2z"/>
</svg>
