<?xml version="1.0" encoding="utf-8"?>
<!-- Generator: Adobe Illustrator 19.1.0, SVG Export Plug-In . SVG Version: 6.00 Build 0)  -->
<svg version="1.1" id="Layer_1" xmlns="http://www.w3.org/2000/svg" xmlns:xlink="http://www.w3.org/1999/xlink" x="0px" y="0px"
	 viewBox="-759 1017 16 16" style="enable-background:new -759 1017 16 16;" xml:space="preserve">
<style type="text/css">
	.st0{fill:#0071BC;}
</style>
<path class="st0" d="M-744,1021v10c0,1.1-0.9,2-2.1,2h-9.8c-1.2,0-2.1-0.9-2.1-2v-12c0-1.1,0.9-2,2.1-2h7L-744,1021z M-750,1022h4
	l-4-3V1022z M-746,1030v-6h-6v-5h-3c-0.6,0-1,0.6-1,1v10c0,0.8,0.5,1,1,1h8C-746.5,1031-746,1030.7-746,1030z"/>
</svg>
