<?xml version="1.0" encoding="utf-8"?>
<!-- Generator: Adobe Illustrator 19.1.0, SVG Export Plug-In . SVG Version: 6.00 Build 0)  -->
<svg version="1.1" id="Layer_1" xmlns="http://www.w3.org/2000/svg" xmlns:xlink="http://www.w3.org/1999/xlink" x="0px" y="0px"
	 viewBox="4 -4 16 16" style="enable-background:new 4 -4 16 16;" xml:space="preserve">
<style type="text/css">
	.st0{fill:#0071BC;}
</style>
<g>
	<g>
		<path class="st0" d="M15-1v-1c0-1.1-0.9-2-2-2h-2C9.9-4,9-3.1,9-2v1H4v1c0,0.6,0.4,1,1,1v9c0,1.1,0.9,2,2,2h10c1.1,0,2-0.9,2-2V1
			c0.6,0,1-0.4,1-1v-1H15z M11-2h2v1h-2V-2z M17,9c0,0.6-0.4,1-1,1H8c-0.6,0-1-0.4-1-1V2c0-0.6,0.4-1,1-1h8c0.6,0,1,0.4,1,1V9z M9,8
			h2V3H9V8z M13,8h2V3h-2V8z"/>
	</g>
</g>
</svg>
