<?xml version="1.0" encoding="utf-8"?>
<!-- Generator: Adobe Illustrator 17.0.1, SVG Export Plug-In . SVG Version: 6.00 Build 0)  -->
<!DOCTYPE svg PUBLIC "-//W3C//DTD SVG 1.1//EN" "http://www.w3.org/Graphics/SVG/1.1/DTD/svg11.dtd">
<svg version="1.1" id="Layer_1" xmlns="http://www.w3.org/2000/svg" xmlns:xlink="http://www.w3.org/1999/xlink" x="0px" y="0px"
	 width="16px" height="16px" viewBox="0 0 16 16" enable-background="new 0 0 16 16" xml:space="preserve">
<path fill-rule="evenodd" clip-rule="evenodd" fill="#5B616B" d="M13.924,6.883c-0.032,0.215-0.085,0.422-0.139,0.629
	c-0.025,0.099-0.049,0.198-0.078,0.297c-0.036,0.112-0.071,0.224-0.114,0.333C12.256,12.043,8,16,8,16s-4.112-3.821-5.523-7.655
	c-0.01-0.023-0.015-0.049-0.025-0.072C2.36,8.017,2.28,7.761,2.214,7.506C2.17,7.336,2.129,7.166,2.1,6.99C2.04,6.656,2,6.325,2,6
	c0-3.314,2.686-6,6-6c3.314,0,6,2.686,6,6C14,6.29,13.972,6.585,13.924,6.883z M8,3C6.343,3,5,4.343,5,6c0,1.657,1.343,3,3,3
	s3-1.343,3-3C11,4.343,9.657,3,8,3z"/>
</svg>
