<?xml version="1.0" encoding="utf-8"?>
<!-- Generator: Adobe Illustrator 19.1.0, SVG Export Plug-In . SVG Version: 6.00 Build 0)  -->
<svg version="1.1" id="Layer_1" xmlns="http://www.w3.org/2000/svg" xmlns:xlink="http://www.w3.org/1999/xlink" x="0px" y="0px"
	 viewBox="0 0 8 8" style="enable-background:new 0 0 8 8;" xml:space="preserve">
<style type="text/css">
	.st0{fill:#5B616B;}
</style>
<path class="st0" d="M7.7,6.3c0.4,0.4,0.4,1,0,1.4C7.5,7.9,7.3,8,7,8C6.7,8,6.5,7.9,6.3,7.7L4,5.4L1.7,7.7C1.5,7.9,1.3,8,1,8
	C0.7,8,0.5,7.9,0.3,7.7c-0.4-0.4-0.4-1,0-1.4L2.6,4L0.3,1.7c-0.4-0.4-0.4-1,0-1.4c0.4-0.4,1-0.4,1.4,0L4,2.6l2.3-2.3
	c0.4-0.4,1-0.4,1.4,0c0.4,0.4,0.4,1,0,1.4L5.4,4L7.7,6.3z"/>
</svg>
