<?xml version="1.0" encoding="utf-8"?>
<!-- Generator: Adobe Illustrator 19.1.0, SVG Export Plug-In . SVG Version: 6.00 Build 0)  -->
<svg version="1.1" id="Layer_1" xmlns="http://www.w3.org/2000/svg" xmlns:xlink="http://www.w3.org/1999/xlink" x="0px" y="0px"
	 viewBox="0 0 21 21" style="enable-background:new 0 0 21 21;" xml:space="preserve">
<style type="text/css">
	.st0{fill-rule:evenodd;clip-rule:evenodd;fill:#0071BC;}
</style>
<path class="st0" d="M16.5,21h-12c-1.7,0-3-1.3-3-3v-8c0-1.7,1.3-3,3-3c0-3.9,2.1-7,6-7s6,3.1,6,7c1.7,0,3,1.3,3,3v8
	C19.5,19.7,18.2,21,16.5,21z M10.5,2c-2.8,0-4,2.2-4,5h8C14.5,4.2,13.3,2,10.5,2z M17.5,10.5C17.5,9.7,16.8,9,16,9H5
	c-0.8,0-1.5,0.7-1.5,1.5v7C3.5,18.3,4.2,19,5,19h11c0.8,0,1.5-0.7,1.5-1.5V10.5z M11,17h-1c-0.3,0-0.5-0.2-0.5-0.5v-3
	c0-0.3,0.2-0.5,0.5-0.5h1c0.3,0,0.5,0.2,0.5,0.5v3C11.5,16.8,11.3,17,11,17z"/>
</svg>
