<?xml version="1.0" encoding="utf-8"?>
<!-- Generator: Adobe Illustrator 19.1.0, SVG Export Plug-In . SVG Version: 6.00 Build 0)  -->
<svg version="1.1" id="Layer_1" xmlns="http://www.w3.org/2000/svg" xmlns:xlink="http://www.w3.org/1999/xlink" x="0px" y="0px"
	 viewBox="0 0 21 21" style="enable-background:new 0 0 21 21;" xml:space="preserve">
<style type="text/css">
	.st0{fill-rule:evenodd;clip-rule:evenodd;fill:#757575;}
</style>
<g>
	<g>
		<path class="st0" d="M10.5,0c-4.4,0-8,3.6-8,8c0,4.4,7,13,8,13c1,0,8-8.6,8-13C18.5,3.6,14.9,0,10.5,0z M10.5,18
			c-0.6,0-6-6.7-6-10c0-3.3,2.7-6,6-6c3.3,0,6,2.7,6,6C16.5,11.3,11.1,18,10.5,18z M10.5,4c-2.2,0-4,1.8-4,4s1.8,4,4,4s4-1.8,4-4
			S12.7,4,10.5,4z M10.5,10c-1.1,0-2-0.9-2-2s0.9-2,2-2c1.1,0,2,0.9,2,2S11.6,10,10.5,10z"/>
	</g>
</g>
</svg>
