<?xml version="1.0" encoding="utf-8"?>
<!-- Generator: Adobe Illustrator 19.1.0, SVG Export Plug-In . SVG Version: 6.00 Build 0)  -->
<svg version="1.1" id="Layer_1" xmlns="http://www.w3.org/2000/svg" xmlns:xlink="http://www.w3.org/1999/xlink" x="0px" y="0px"
	 viewBox="0 0 56 56" style="enable-background:new 0 0 56 56;" xml:space="preserve">
<style type="text/css">
	.st0{fill-rule:evenodd;clip-rule:evenodd;fill:#D6D7D9;}
	.st1{fill:#FFFFFF;}
</style>
<g>
	<g>
		<path class="st0" d="M28-0.1C17.7-0.1,9.3,7.7,9.3,17.4C9.3,27,28,56.1,28,56.1S46.7,27,46.7,17.4C46.7,7.7,38.3-0.1,28-0.1z"/>
	</g>
</g>
<g>
	<path class="st1" d="M28,11.9c3.8,0,6.8,3,6.8,6.8s-3.1,6.8-6.8,6.8s-6.8-3-6.8-6.8S24.2,11.9,28,11.9 M28,6.9
		c-6.5,0-11.8,5.3-11.8,11.8c0,6.5,5.3,11.8,11.8,11.8s11.8-5.3,11.8-11.8C39.8,12.1,34.5,6.9,28,6.9L28,6.9z"/>
</g>
</svg>
