<?xml version="1.0" encoding="utf-8"?>
<!-- Generator: Adobe Illustrator 19.1.0, SVG Export Plug-In . SVG Version: 6.00 Build 0)  -->
<svg version="1.1" id="Layer_1" xmlns="http://www.w3.org/2000/svg" xmlns:xlink="http://www.w3.org/1999/xlink" x="0px" y="0px"
	 viewBox="0 0 16 16" style="enable-background:new 0 0 16 16;" xml:space="preserve">
<style type="text/css">
	.st0{fill-rule:evenodd;clip-rule:evenodd;fill:#5B616B;}
</style>
<g>
	<g>
		<path class="st0" d="M11,3V2c0-1.1-0.9-2-2-2H7C5.9,0,5,0.9,5,2v1H0v1c0,0.6,0.4,1,1,1v9c0,1.1,0.9,2,2,2h10c1.1,0,2-0.9,2-2V5
			c0.6,0,1-0.4,1-1V3H11z M7,2h2v1H7V2z M13,13c0,0.6-0.4,1-1,1H4c-0.6,0-1-0.4-1-1V6c0-0.6,0.4-1,1-1h8c0.6,0,1,0.4,1,1V13z M5,12
			h2V7H5V12z M9,12h2V7H9V12z"/>
	</g>
</g>
</svg>
