<?xml version="1.0" encoding="utf-8"?>
<!-- Generator: Adobe Illustrator 19.1.0, SVG Export Plug-In . SVG Version: 6.00 Build 0)  -->
<svg version="1.1" id="Layer_1" xmlns="http://www.w3.org/2000/svg" xmlns:xlink="http://www.w3.org/1999/xlink" x="0px" y="0px"
	 viewBox="4 -4 16 16" style="enable-background:new 4 -4 16 16;" xml:space="preserve">
<style type="text/css">
	.st0{fill:#0071BC;}
</style>
<g>
	<g>
		<path class="st0" d="M18-2H6C4.9-2,4-1.1,4,0v8c0,1.1,0.9,2,2,2h12c1.1,0,2-0.9,2-2V0C20-1.1,19.1-2,18-2z M18,7c0,0.6-0.4,1-1,1
			H7C6.4,8,6,7.6,6,7V1c0-0.6,0.4-1,1-1h10c0.6,0,1,0.4,1,1V7z M15.5,1.5L12,5L8.5,1.5l-1,1L9,4L7.5,5.5l1,1L10,5l2,1.5L14,5
			l1.5,1.5l1-1L15,4l1.5-1.5L15.5,1.5z"/>
	</g>
</g>
</svg>
