<?xml version="1.0" encoding="utf-8"?>
<!-- Generator: Adobe Illustrator 19.1.0, SVG Export Plug-In . SVG Version: 6.00 Build 0)  -->
<svg version="1.1" id="Layer_1" xmlns="http://www.w3.org/2000/svg" xmlns:xlink="http://www.w3.org/1999/xlink" x="0px" y="0px"
	 viewBox="4 -4 16 16" style="enable-background:new 4 -4 16 16;" xml:space="preserve">
<style type="text/css">
	.st0{fill:#0071BC;}
</style>
<g>
	<g>
		<path class="st0" d="M8,2h8V0H8V2z M18-4H6C4.9-4,4-3.1,4-2v12c0,1.1,0.9,2,2,2h12c1.1,0,2-0.9,2-2V-2C20-3.1,19.1-4,18-4z M18,6
			c0,0.6-0.4,1-1,1h-1c-0.9,0-1,1-1,1v1c0,0.6-0.4,1-1,1h-4c-0.6,0-1-0.4-1-1V8c0,0,0-1-1-1H7C6.4,7,6,6.6,6,6v-7c0-0.6,0.4-1,1-1
			h10c0.6,0,1,0.4,1,1V6z M8,5h8V3H8V5z"/>
	</g>
</g>
</svg>
