<?xml version="1.0" encoding="utf-8"?>
<!-- Generator: Adobe Illustrator 19.1.0, SVG Export Plug-In . SVG Version: 6.00 Build 0)  -->
<svg version="1.1" id="Layer_1" xmlns="http://www.w3.org/2000/svg" xmlns:xlink="http://www.w3.org/1999/xlink" x="0px" y="0px"
	 viewBox="-759 1017 16 16" style="enable-background:new -759 1017 16 16;" xml:space="preserve">
<style type="text/css">
	.st0{fill:#0071BC;}
</style>
<g>
	<g>
		<path class="st0" d="M-748,1020v-1c0-1.1-0.9-2-2-2h-2c-1.1,0-2,0.9-2,2v1h-5v1c0,0.6,0.4,1,1,1v9c0,1.1,0.9,2,2,2h10
			c1.1,0,2-0.9,2-2v-9c0.6,0,1-0.4,1-1v-1H-748z M-752,1019h2v1h-2V1019z M-746,1030c0,0.6-0.4,1-1,1h-8c-0.6,0-1-0.4-1-1v-7
			c0-0.6,0.4-1,1-1h8c0.6,0,1,0.4,1,1V1030z M-754,1029h2v-5h-2V1029z M-750,1029h2v-5h-2V1029z"/>
	</g>
</g>
</svg>
