<?xml version="1.0" encoding="utf-8"?>
<!-- Generator: Adobe Illustrator 19.1.0, SVG Export Plug-In . SVG Version: 6.00 Build 0)  -->
<svg version="1.1" id="Layer_1" xmlns="http://www.w3.org/2000/svg" xmlns:xlink="http://www.w3.org/1999/xlink" x="0px" y="0px"
	 viewBox="0 0 21 21" style="enable-background:new 0 0 21 21;" xml:space="preserve">
<style type="text/css">
	.st0{fill-rule:evenodd;clip-rule:evenodd;fill:#FFFFFF;}
</style>
<path class="st0" d="M19,6c-0.3,0-1,0-1,0v13c0,0.7-1.3,2-2,2H5c-0.7,0-2-1.3-2-2V6H2C1.3,6,1,5.7,1,5s0.3-1,1-1h3l0,0V2
	c0-0.7,1.3-2,2-2h7c0.7,0,2,1.3,2,2v2h1h2c0.7,0,1,0.3,1,1C20,5.7,19.5,5.9,19,6z M7,17h2V7H7V17z M14,2H7v2h7V2z M14,7h-2v10h2V7z"
	/>
</svg>
