<?xml version="1.0" encoding="utf-8"?>
<!-- Generator: Adobe Illustrator 19.1.0, SVG Export Plug-In . SVG Version: 6.00 Build 0)  -->
<svg version="1.1" id="Layer_1" xmlns="http://www.w3.org/2000/svg" xmlns:xlink="http://www.w3.org/1999/xlink" x="0px" y="0px"
	 viewBox="0 0 22 22" style="enable-background:new 0 0 22 22;" xml:space="preserve">
<style type="text/css">
	.st0{fill:#FFFFFF;}
</style>
<path class="st0" d="M11,0C8.1,0,5.3,1.1,3.2,3.2c-4.3,4.3-4.3,11.3,0,15.6C5.3,20.9,8.1,22,11,22s5.7-1.1,7.8-3.2
	c4.3-4.3,4.3-11.3,0-15.6C16.7,1.1,13.9,0,11,0z M16,15.9c-0.2,0.2-0.5,0.3-0.7,0.3c-0.3,0-0.5-0.1-0.7-0.3L11,12.4l-3.5,3.5
	c-0.2,0.2-0.5,0.3-0.7,0.3S6.2,16.1,6,15.9c-0.4-0.4-0.4-1,0-1.4L9.6,11L6,7.5c-0.4-0.4-0.4-1,0-1.4c0.4-0.4,1-0.4,1.4,0L11,9.6
	l3.5-3.5c0.4-0.4,1-0.4,1.4,0c0.4,0.4,0.4,1,0,1.4L12.4,11l3.5,3.5C16.3,14.9,16.3,15.6,16,15.9z"/>
</svg>
