<?xml version="1.0" encoding="utf-8"?>
<!-- Generator: Adobe Illustrator 19.1.0, SVG Export Plug-In . SVG Version: 6.00 Build 0)  -->
<svg version="1.1" id="Layer_1" xmlns="http://www.w3.org/2000/svg" xmlns:xlink="http://www.w3.org/1999/xlink" x="0px" y="0px"
	 viewBox="0 0 26 26" style="enable-background:new 0 0 26 26;" xml:space="preserve">
<style type="text/css">
	.st0{fill:#FFFFFF;}
</style>
<g>
	<g>
		<path class="st0" d="M24.9,5.1C24.7,5,24.6,5,24.4,5H1.6C1.4,5,1.3,5,1.1,5.1L13,14.5L24.9,5.1z M25.8,5.3l-8.4,7l8.4,8.4
			c0.1-0.2,0.2-0.5,0.2-0.8V6.1C26,5.8,25.9,5.5,25.8,5.3z M0.2,5.3C0.1,5.5,0,5.8,0,6.1v13.8c0,0.3,0.1,0.5,0.2,0.8l8.4-8.4
			L0.2,5.3z M16.5,12.9l-3.2,2.6c-0.1,0.1-0.2,0.1-0.3,0.1c-0.1,0-0.2,0-0.3-0.1l-3.2-2.6L1,20.9C0.9,20.8,1.2,21,1.6,21h22.7
			c0.4,0,0.8-0.2,0.6-0.1L16.5,12.9z"/>
	</g>
</g>
</svg>
