<?xml version="1.0" encoding="utf-8"?>
<!-- Generator: Adobe Illustrator 19.1.0, SVG Export Plug-In . SVG Version: 6.00 Build 0)  -->
<svg version="1.1" id="Layer_1" xmlns="http://www.w3.org/2000/svg" xmlns:xlink="http://www.w3.org/1999/xlink" x="0px" y="0px"
	 viewBox="-759 1017 16 16" style="enable-background:new -759 1017 16 16;" xml:space="preserve">
<style type="text/css">
	.st0{fill:#0071BC;}
</style>
<g>
	<g>
		<path class="st0" d="M-755,1023h8v-2h-8V1023z M-745,1017h-12c-1.1,0-2,0.9-2,2v12c0,1.1,0.9,2,2,2h12c1.1,0,2-0.9,2-2v-12
			C-743,1017.9-743.9,1017-745,1017z M-745,1027c0,0.6-0.4,1-1,1h-1c-0.9,0-1,1-1,1v1c0,0.6-0.4,1-1,1h-4c-0.6,0-1-0.4-1-1v-1
			c0,0,0-1-1-1h-1c-0.6,0-1-0.4-1-1v-7c0-0.6,0.4-1,1-1h10c0.6,0,1,0.4,1,1V1027z M-755,1026h8v-2h-8V1026z"/>
	</g>
</g>
</svg>
