<?xml version="1.0" encoding="utf-8"?>
<!-- Generator: Adobe Illustrator 19.1.0, SVG Export Plug-In . SVG Version: 6.00 Build 0)  -->
<svg version="1.1" id="Layer_1" xmlns="http://www.w3.org/2000/svg" xmlns:xlink="http://www.w3.org/1999/xlink" x="0px" y="0px"
	 viewBox="0 0 16 16" style="enable-background:new 0 0 16 16;" xml:space="preserve">
<style type="text/css">
	.st0{fill-rule:evenodd;clip-rule:evenodd;fill:#5B616B;}
</style>
<g>
	<g>
		<path class="st0" d="M15.6,13.9L12.7,11C13.5,9.9,14,8.5,14,7c0-3.9-3.1-7-7-7C3.1,0,0,3.1,0,7c0,3.9,3.1,7,7,7
			c1.5,0,2.9-0.5,4-1.3l2.9,2.9c0.5,0.5,1.3,0.5,1.7,0C16.1,15.2,16.1,14.4,15.6,13.9z M7,12c-2.8,0-5-2.2-5-5c0-2.8,2.2-5,5-5
			c2.8,0,5,2.2,5,5C12,9.8,9.8,12,7,12z"/>
	</g>
</g>
</svg>
