<?xml version="1.0" encoding="utf-8"?>
<!-- Generator: Adobe Illustrator 19.1.0, SVG Export Plug-In . SVG Version: 6.00 Build 0)  -->
<svg version="1.1" id="Layer_1" xmlns="http://www.w3.org/2000/svg" xmlns:xlink="http://www.w3.org/1999/xlink" x="0px" y="0px"
	 viewBox="0 0 22 22" style="enable-background:new 0 0 22 22;" xml:space="preserve">
<style type="text/css">
	.st0{fill:#FFFFFF;}
</style>
<path class="st0" d="M18.8,3.2c-4.3-4.3-11.2-4.3-15.5,0c-4.3,4.3-4.3,11.2,0,15.5c4.3,4.3,11.2,4.3,15.5,0
	C23.1,14.5,23.1,7.5,18.8,3.2z M12.4,15.8c0,0.8-0.6,1.4-1.4,1.4c-0.8,0-1.4-0.6-1.4-1.4V10c0-0.8,0.6-1.4,1.4-1.4
	c0.8,0,1.4,0.6,1.4,1.4V15.8z M11,7.6c-0.8,0-1.4-0.6-1.4-1.3C9.6,5.5,10.1,5,11,5c0.8,0,1.4,0.6,1.4,1.3C12.4,7,11.8,7.6,11,7.6z"
	/>
</svg>
