<?xml version="1.0" encoding="utf-8"?>
<!-- Generator: Adobe Illustrator 19.1.0, SVG Export Plug-In . SVG Version: 6.00 Build 0)  -->
<svg version="1.1" id="Layer_1" xmlns="http://www.w3.org/2000/svg" xmlns:xlink="http://www.w3.org/1999/xlink" x="0px" y="0px"
	 viewBox="0 0 16 16" style="enable-background:new 0 0 16 16;" xml:space="preserve">
<style type="text/css">
	.st0{fill:#5B616B;}
</style>
<path class="st0" d="M15,4l0,10c0,1.1-0.9,2-2.1,2H3.1C1.9,16,1,15.1,1,14V2c0-1.1,0.9-2,2.1-2h7L15,4z M9,5h4L9,2V5z M13,13V7H7V2
	H4C3.4,2,3,2.6,3,3v10c0,0.8,0.5,1,1,1h8C12.5,14,13,13.7,13,13z"/>
</svg>
