<?xml version="1.0" encoding="utf-8"?>
<!-- Generator: Adobe Illustrator 19.1.0, SVG Export Plug-In . SVG Version: 6.00 Build 0)  -->
<svg version="1.1" id="Layer_1" xmlns="http://www.w3.org/2000/svg" xmlns:xlink="http://www.w3.org/1999/xlink" x="0px" y="0px"
	 viewBox="0 0 30 30" style="enable-background:new 0 0 30 30;" xml:space="preserve">
<style type="text/css">
	.st0{fill-rule:evenodd;clip-rule:evenodd;fill:#0071BC;}
</style>
<g>
	<g>
		<path class="st0" d="M29.3,26.1l-5.4-5.4c1.5-2.1,2.4-4.7,2.4-7.5C26.3,5.9,20.4,0,13.1,0C5.9,0,0,5.9,0,13.1
			c0,7.3,5.9,13.1,13.1,13.1c2.8,0,5.4-0.9,7.5-2.4l5.4,5.4c0.9,0.9,2.4,0.9,3.3,0C30.2,28.4,30.2,27,29.3,26.1z M13.1,22.5
			c-5.2,0-9.4-4.2-9.4-9.4c0-5.2,4.2-9.4,9.4-9.4c5.2,0,9.4,4.2,9.4,9.4C22.5,18.3,18.3,22.5,13.1,22.5z"/>
	</g>
</g>
</svg>
