<?xml version="1.0" encoding="utf-8"?>
<!-- Generator: Adobe Illustrator 19.1.0, SVG Export Plug-In . SVG Version: 6.00 Build 0)  -->
<svg version="1.1" id="Layer_1" xmlns="http://www.w3.org/2000/svg" xmlns:xlink="http://www.w3.org/1999/xlink" x="0px" y="0px"
	 viewBox="0 0 16 16" style="enable-background:new 0 0 16 16;" xml:space="preserve">
<style type="text/css">
	.st0{fill-rule:evenodd;clip-rule:evenodd;fill:#5B616B;}
</style>
<g>
	<g>
		<path class="st0" d="M9.5,8C8.7,8,8,7.3,8,6.5c0-0.6,0.4-1.1,0.9-1.4C8.6,5.1,8.3,5,8,5C6.3,5,5,6.3,5,8c0,1.7,1.3,3,3,3
			c1.7,0,3-1.3,3-3c0-0.3-0.1-0.6-0.1-0.9C10.6,7.6,10.1,8,9.5,8z M8,2C3.6,2,0,6.8,0,8c0,1.2,3.6,6,8,6c4.4,0,8-4.8,8-6
			C16,6.8,12.4,2,8,2z M8,12c-3.6,0-6-3.6-6-4c0-0.4,2.4-4,6-4s6,3.6,6,4C14,8.4,11.7,12,8,12z"/>
	</g>
</g>
</svg>
