<?xml version="1.0" encoding="utf-8"?>
<!-- Generator: Adobe Illustrator 19.1.0, SVG Export Plug-In . SVG Version: 6.00 Build 0)  -->
<svg version="1.1" id="Layer_1" xmlns="http://www.w3.org/2000/svg" xmlns:xlink="http://www.w3.org/1999/xlink" x="0px" y="0px"
	 viewBox="9 -8 25 25" style="enable-background:new 9 -8 25 25;" xml:space="preserve">
<style type="text/css">
	.st0{fill:#0D71BA;}
</style>
<g>
	<g>
		<path class="st0" d="M13.5,7c-1,0-2-1-2-2V0.2l7,5.1c0.2,0.1,0.9,0.1,1,0l7-5.1v1c0.3,0,0.7-0.1,1-0.1c0.3,0,0.6,0,1,0.1v-3.6
			c0-1.4-1.2-2.6-2.6-2.6H12.1c-1.4,0-2.6,1.2-2.6,2.6v8.7c0,1.4,1.2,2.6,2.6,2.6h8.6c0-0.3-0.1-0.6-0.1-0.9c0-0.3,0-0.7,0.1-1H13.5
			z M11.5-2c0-1,0-1,1-1h13c1,0,1,0,1,1v0L19,3.5L11.5-2L11.5-2z M27.5,2c-3.3,0-6,2.7-6,6s2.7,6,6,6s6-2.7,6-6S30.8,2,27.5,2z
			 M31.5,9h-3v3h-2V9h-3V7h3V4h2v3h3V9z"/>
	</g>
</g>
</svg>
