<?xml version="1.0" encoding="utf-8"?>
<!-- Generator: Adobe Illustrator 19.1.0, SVG Export Plug-In . SVG Version: 6.00 Build 0)  -->
<svg version="1.1" id="Layer_1" xmlns="http://www.w3.org/2000/svg" xmlns:xlink="http://www.w3.org/1999/xlink" x="0px" y="0px"
	 viewBox="0 0 26 26" style="enable-background:new 0 0 26 26;" xml:space="preserve">
<style type="text/css">
	.st0{fill-rule:evenodd;clip-rule:evenodd;fill:#757D89;}
</style>
<g>
	<g>
		<path class="st0" d="M15.9,13l9.7-9.7c0.6-0.6,0.6-1.6,0-2.1l-0.7-0.7c-0.6-0.6-1.6-0.6-2.1,0L13,10.1L3.3,0.5
			c-0.6-0.6-1.6-0.6-2.1,0L0.5,1.2c-0.6,0.6-0.6,1.6,0,2.1l9.7,9.7l-9.7,9.7c-0.6,0.6-0.6,1.6,0,2.2l0.7,0.7c0.6,0.6,1.6,0.6,2.1,0
			l9.7-9.7l9.7,9.7c0.6,0.6,1.6,0.6,2.1,0l0.7-0.7c0.6-0.6,0.6-1.6,0-2.2L15.9,13z"/>
	</g>
</g>
</svg>
