<?xml version="1.0" encoding="utf-8"?>
<!-- Generator: Adobe Illustrator 17.0.1, SVG Export Plug-In . SVG Version: 6.00 Build 0)  -->
<!DOCTYPE svg PUBLIC "-//W3C//DTD SVG 1.1//EN" "http://www.w3.org/Graphics/SVG/1.1/DTD/svg11.dtd">
<svg version="1.1" id="Layer_1" xmlns="http://www.w3.org/2000/svg" xmlns:xlink="http://www.w3.org/1999/xlink" x="0px" y="0px"
	 width="25px" height="25px" viewBox="0 0 25 25" enable-background="new 0 0 25 25" xml:space="preserve">
<g>
	<g>
		<path fill-rule="evenodd" clip-rule="evenodd" fill="#0D71BA" d="M4.125,14.563c-0.952,0-2-1.04-2-2V7.774l6.967,5.105
			c0.162,0.119,0.868,0.119,1.03,0l7.002-5.13v1.023c0.328-0.049,0.66-0.083,1-0.083c0.328,0,0.649,0.032,0.965,0.078V5.171
			c0-1.441-1.158-2.609-2.586-2.609H2.711c-1.428,0-2.586,1.168-2.586,2.609v8.696c0,1.441,1.158,2.609,2.586,2.609h8.609
			c-0.041-0.3-0.069-0.603-0.069-0.913c0-0.34,0.034-0.672,0.083-1H4.125z M2.125,5.563c0-0.961,0.048-1,1-1h13c0.952,0,1,0.039,1,1
			v0.03l-7.517,5.508L2.125,5.618V5.563z M18.125,9.563c-3.314,0-6,2.686-6,6c0,3.314,2.686,6,6,6c3.314,0,6-2.686,6-6
			C24.125,12.249,21.439,9.563,18.125,9.563z M22.125,16.563h-3v3h-2v-3h-3v-2h3v-3h2v3h3V16.563z"/>
	</g>
</g>
</svg>
