<?xml version="1.0" encoding="utf-8"?>
<!-- Generator: Adobe Illustrator 19.1.0, SVG Export Plug-In . SVG Version: 6.00 Build 0)  -->
<svg version="1.1" id="Layer_1" xmlns="http://www.w3.org/2000/svg" xmlns:xlink="http://www.w3.org/1999/xlink" x="0px" y="0px"
	 viewBox="0 0 16 16" style="enable-background:new 0 0 16 16;" xml:space="preserve">
<style type="text/css">
	.st0{fill-rule:evenodd;clip-rule:evenodd;fill:#5B616B;}
</style>
<g>
	<g>
		<path class="st0" d="M7.2,11.7c0.1,0.1,0.2,0.2,0.4,0.2C7.7,12,7.9,12,8,12c0.1,0,0.1,0,0.2,0c0.2,0,0.4-0.1,0.6-0.3l3-2.9
			c0.4-0.4,0.4-1.1,0-1.5c-0.4-0.4-1.1-0.4-1.5,0L9,8.6L9,1c0-0.6-0.4-1-1-1C7.5,0,7,0.4,7,1l0,7.5L5.8,7.3c-0.4-0.4-1.1-0.4-1.5,0
			c-0.4,0.4-0.4,1.1,0,1.5L7.2,11.7z M16,14.9l0-3.9c0-0.6-0.4-1-1-1c-0.5,0-1,0.4-1,1l0,3L2,14l0-3c0-0.6-0.4-1-1-1
			c-0.5,0-1,0.4-1,1l0,3.9c0,0,0,0.1,0,0.1c0,0.2,0.1,0.4,0.2,0.6C0.4,15.8,0.7,16,1,16c0.1,0,0.1,0,0.1,0l13.7,0c0,0,0.1,0,0.1,0
			c0.4,0,0.7-0.2,0.9-0.6C16,15.3,16,15.2,16,14.9C16,15,16,15,16,14.9z"/>
	</g>
</g>
</svg>
