<?xml version="1.0" encoding="utf-8"?>
<!-- Generator: Adobe Illustrator 19.1.0, SVG Export Plug-In . SVG Version: 6.00 Build 0)  -->
<svg version="1.1" id="Layer_1" xmlns="http://www.w3.org/2000/svg" xmlns:xlink="http://www.w3.org/1999/xlink" x="0px" y="0px"
	 viewBox="-759 1017 16 16" style="enable-background:new -759 1017 16 16;" xml:space="preserve">
<style type="text/css">
	.st0{fill:#FFFFFF;}
</style>
<g>
	<g>
		<path class="st0" d="M-751,1017c-3.3,0-6,2.7-6,6c0,3.3,6,10,6,10s6-6.7,6-10C-745,1019.7-747.7,1017-751,1017z M-751,1030
			c0,0-4-4.8-4-7c0-2.2,1.8-4,4-4s4,1.8,4,4C-747,1025.2-751,1030-751,1030z M-751,1021c-1.1,0-2,0.9-2,2s0.9,2,2,2s2-0.9,2-2
			S-749.9,1021-751,1021z"/>
	</g>
</g>
</svg>
