<?xml version="1.0" encoding="utf-8"?>
<!-- Generator: Adobe Illustrator 19.1.0, SVG Export Plug-In . SVG Version: 6.00 Build 0)  -->
<svg version="1.1" id="Layer_1" xmlns="http://www.w3.org/2000/svg" xmlns:xlink="http://www.w3.org/1999/xlink" x="0px" y="0px"
	 viewBox="0 0 16 16" style="enable-background:new 0 0 16 16;" xml:space="preserve">
<style type="text/css">
	.st0{fill-rule:evenodd;clip-rule:evenodd;fill:#FAD980;}
</style>
<g>
	<g>
		<path class="st0" d="M14,0H2C0.9,0,0,0.9,0,2v9c0,1.1,0.9,2,2,2h6.5l4.5,3v-3h1c1.1,0,2-0.9,2-2V2C16,0.9,15.1,0,14,0z M14,10
			c0,0.6-0.4,1-1,1h-2v1.5L8.5,11H3c-0.6,0-1-0.4-1-1V3c0-0.6,0.4-1,1-1h10c0.6,0,1,0.4,1,1V10z M4,6h8V4H4V6z M4,9h8V7H4V9z"/>
	</g>
</g>
</svg>
