<?xml version="1.0" encoding="utf-8"?>
<!-- Generator: Adobe Illustrator 17.0.1, SVG Export Plug-In . SVG Version: 6.00 Build 0)  -->
<!DOCTYPE svg PUBLIC "-//W3C//DTD SVG 1.1//EN" "http://www.w3.org/Graphics/SVG/1.1/DTD/svg11.dtd">
<svg version="1.1" id="Layer_1" xmlns="http://www.w3.org/2000/svg" xmlns:xlink="http://www.w3.org/1999/xlink" x="0px" y="0px"
	 width="16px" height="16px" viewBox="0 0 16 16" enable-background="new 0 0 16 16" xml:space="preserve">
<g display="none">
	<g display="inline">
		<path fill-rule="evenodd" clip-rule="evenodd" fill="#5B616B" d="M12,5c-0.552,0-1,0.448-1,1v5c0,0.008,0.004,0.015,0.005,0.022
			c-0.012,1.65-1.352,2.984-3.004,2.984c-1.639,0-2.966-1.313-3-2.944h0V3.077C5.042,3.6,5.467,4.016,6,4.016
			c0.534,0,0.959-0.416,1-0.938V11c0,0.552,0.448,1,1,1c0.552,0,1-0.448,1-1V3c0-1.657-1.343-3-3-3C4.343,0,3,1.343,3,3v8.062h0.006
			C3.041,13.794,5.26,16,8,16c2.761,0,5-2.239,5-5V6C13,5.448,12.552,5,12,5z"/>
	</g>
</g>
<g>
	<g>
		<path fill-rule="evenodd" clip-rule="evenodd" fill="#5B616B" d="M12,5c-0.552,0-1,0.448-1,1v5c0,0.008,0.004,0.015,0.005,0.022
			c-0.012,1.65-1.352,2.984-3.004,2.984c-1.639,0-2.966-1.313-3-2.944h0V3H4.993c0-0.561,0.453-1.016,1.011-1.016
			c0.545,0,0.982,0.435,1.003,0.977C7.007,2.975,7,2.986,7,3v8c0,0.552,0.448,1,1,1c0.552,0,1-0.448,1-1V3c0-1.657-1.343-3-3-3
			C4.343,0,3,1.343,3,3v8v0v0.062h0.006C3.041,13.794,5.26,16,8,16c2.761,0,5-2.239,5-5v0V6C13,5.448,12.552,5,12,5z"/>
	</g>
</g>
<g>
	<circle display="none" fill="#5B616B" cx="6" cy="3" r="1.016"/>
</g>
</svg>
