<?xml version="1.0" encoding="utf-8"?>
<!-- Generator: Adobe Illustrator 19.1.0, SVG Export Plug-In . SVG Version: 6.00 Build 0)  -->
<svg version="1.1" id="Layer_1" xmlns="http://www.w3.org/2000/svg" xmlns:xlink="http://www.w3.org/1999/xlink" x="0px" y="0px"
	 viewBox="0 0 16 16" style="enable-background:new 0 0 16 16;" xml:space="preserve">
<style type="text/css">
	.st0{fill-rule:evenodd;clip-rule:evenodd;fill:#FFFFFF;}
</style>
<path class="st0" d="M8,16c-4.4,0-8-3.6-8-8c0-4.4,3.6-8,8-8c4.4,0,8,3.6,8,8C16,12.4,12.4,16,8,16z M8,2C4.7,2,2,4.7,2,8
	c0,3.3,2.7,6,6,6c3.3,0,6-2.7,6-6C14,4.7,11.3,2,8,2z M10.9,11.6l-0.2,0.1L10.3,12L10,12.2c-0.2,0.1-0.5,0.2-0.7,0.3v-0.3l-0.1-0.7
	c0,0,0-0.4-0.1-0.5c-0.1-0.1-0.2-0.2-0.4-0.3s-0.3-0.1-0.3-0.2c-0.1-0.1-0.1-0.3-0.3-0.5C8,9.9,7.9,9.8,7.9,9.7c0-0.1,0-0.9,0-0.9
	L8,8l0.2-0.2l0.3-0.3l0.2-0.1l0.7,0.1h0.5L10,8l0.4,0.4l0.3,0.4l0.4,0.1h0.4l0.3,0.3l0.2,0.4L12,9.8v0.4l0,0.2
	C11.7,10.9,11.3,11.3,10.9,11.6z M9.3,4.5L8.8,4.7L8.7,5.2L8.4,5.5H7.5L7.1,5.6L7,6L6.9,6.2l0,0.3l0.1,0.2L7,7c0,0,0.3,0.3,0,0.5
	c0,0-0.3,0-0.4-0.1C6.6,7.3,6.1,7,6,6.9C5.9,6.8,5.7,6.8,5.7,6.8L5.3,6.6L5,6.6l0-0.4l0-0.4L4.9,5.6L4.5,5.3l0-0.3l0-0.2
	c0.9-0.8,2-1.3,3.3-1.3c0.7,0,1.4,0.2,2,0.5l0,0.1L9.3,4.5z"/>
</svg>
