<?xml version="1.0" encoding="utf-8"?>
<!-- Generator: Adobe Illustrator 19.1.0, SVG Export Plug-In . SVG Version: 6.00 Build 0)  -->
<svg version="1.1" id="Layer_1" xmlns="http://www.w3.org/2000/svg" xmlns:xlink="http://www.w3.org/1999/xlink" x="0px" y="0px"
	 viewBox="0 0 16 16" style="enable-background:new 0 0 16 16;" xml:space="preserve">
<style type="text/css">
	.st0{fill-rule:evenodd;clip-rule:evenodd;fill:#5B616B;}
</style>
<g>
	<g>
		<path class="st0" d="M8,0C4.7,0,2,2.7,2,6s6,10,6,10s6-6.7,6-10S11.3,0,8,0z M8,13c0,0-4-4.8-4-7c0-2.2,1.8-4,4-4c2.2,0,4,1.8,4,4
			C12,8.2,8,13,8,13z M8,4C6.9,4,6,4.9,6,6c0,1.1,0.9,2,2,2s2-0.9,2-2C10,4.9,9.1,4,8,4z"/>
	</g>
</g>
</svg>
