<?xml version="1.0" encoding="utf-8"?>
<!-- Generator: Adobe Illustrator 17.0.1, SVG Export Plug-In . SVG Version: 6.00 Build 0)  -->
<!DOCTYPE svg PUBLIC "-//W3C//DTD SVG 1.1//EN" "http://www.w3.org/Graphics/SVG/1.1/DTD/svg11.dtd">
<svg version="1.1" id="Layer_1" xmlns="http://www.w3.org/2000/svg" xmlns:xlink="http://www.w3.org/1999/xlink" x="0px" y="0px"
	 width="44px" height="44px" viewBox="0 0 44 44" enable-background="new 0 0 44 44" xml:space="preserve">
<g>
	<g>
		<path fill-rule="evenodd" clip-rule="evenodd" fill="#FFFFFF" d="M2,13h40c1.105,0,2-0.896,2-2c0-1.105-0.895-2-2-2H2
			c-1.105,0-2,0.895-2,2C0,12.105,0.896,13,2,13z M42,20H2c-1.105,0-2,0.896-2,2c0,1.105,0.895,2,2,2h40c1.105,0,2-0.895,2-2
			C44,20.895,43.105,20,42,20z M42.002,31H2C0.896,31,0,31.895,0,33S0.896,35,2,35h40.002C43.105,35,44,34.104,44,33
			S43.105,31,42.002,31z"/>
	</g>
</g>
</svg>
