<?xml version="1.0" encoding="utf-8"?>
<!-- Generator: Adobe Illustrator 19.1.0, SVG Export Plug-In . SVG Version: 6.00 Build 0)  -->
<svg version="1.1" id="Layer_1" xmlns="http://www.w3.org/2000/svg" xmlns:xlink="http://www.w3.org/1999/xlink" x="0px" y="0px"
	 viewBox="-5 7 16 16" style="enable-background:new -5 7 16 16;" xml:space="preserve">
<style type="text/css">
	.st0{fill:#FFFFFF;}
</style>
<g>
	<g>
		<path class="st0" d="M11,14.8c0-0.2-0.1-0.4-0.3-0.5l-2.9-2.9c-0.4-0.4-1.1-0.4-1.5,0c-0.4,0.4-0.4,1.1,0,1.5L7.6,14H0
			c-0.5,0-1,0.5-1,1s0.4,1,1,1h7.5l-1.3,1.3c-0.4,0.4-0.4,1.1,0,1.5c0.4,0.4,1.1,0.4,1.5,0l3-2.9c0.1-0.1,0.2-0.2,0.2-0.4
			C11,15.3,11,15.2,11,15C11,15,11,14.9,11,14.8z M0,21h-3V9h3c0.6,0,1-0.4,1-1c0-0.5-0.4-1-1-1h-3.9H-4c-0.2,0-0.4,0.1-0.6,0.2
			C-4.8,7.4-5,7.7-5,8c0,0.1,0,0.1,0,0.1v13.7v0.1c0,0.4,0.2,0.7,0.6,0.9C-4.3,23-4.2,23-4,23l0,0h4c0.6,0,1-0.4,1-1
			C1,21.5,0.5,21,0,21z"/>
	</g>
</g>
</svg>
