<?xml version="1.0" encoding="utf-8"?>
<!-- Generator: Adobe Illustrator 19.1.0, SVG Export Plug-In . SVG Version: 6.00 Build 0)  -->
<svg version="1.1" id="Layer_1" xmlns="http://www.w3.org/2000/svg" xmlns:xlink="http://www.w3.org/1999/xlink" x="0px" y="0px"
	 viewBox="-759 1017 16 16" style="enable-background:new -759 1017 16 16;" xml:space="preserve">
<style type="text/css">
	.st0{fill:#0071BC;}
</style>
<g>
	<g>
		<path class="st0" d="M-745,1019h-12c-1.1,0-2,0.9-2,2v8c0,1.1,0.9,2,2,2h12c1.1,0,2-0.9,2-2v-8C-743,1019.9-743.9,1019-745,1019z
			 M-745,1028c0,0.6-0.4,1-1,1h-10c-0.6,0-1-0.4-1-1v-6c0-0.6,0.4-1,1-1h10c0.6,0,1,0.4,1,1V1028z M-747.5,1022.5l-3.5,3.5l-3.5-3.5
			l-1,1l1.5,1.5l-1.5,1.5l1,1l1.5-1.5l2,1.5l2-1.5l1.5,1.5l1-1l-1.5-1.5l1.5-1.5L-747.5,1022.5z"/>
	</g>
</g>
</svg>
